<?xml version="1.0" standalone="no"?>
<!DOCTYPE svg PUBLIC "-//W3C//DTD SVG 20010904//EN"
 "http://www.w3.org/TR/2001/REC-SVG-20010904/DTD/svg10.dtd">
<svg version="1.0" xmlns="http://www.w3.org/2000/svg"
 width="16.000000pt" height="16.000000pt" viewBox="0 0 16.000000 16.000000"
 preserveAspectRatio="xMidYMid meet">
<metadata>
Created by potrace 1.11, written by Peter Selinger 2001-2013
</metadata>
<g transform="translate(0.000000,16.000000) scale(0.002645,-0.002645)"
fill="#000000" stroke="none">
<path d="M2287 5826 c-48 -13 -72 -26 -46 -26 8 0 41 9 74 20 67 21 46 26 -28
6z"/>
<path d="M3320 5823 c-13 -3 -30 -14 -38 -24 -13 -19 -39 -28 -28 -10 15 23
-244 -67 -262 -91 -14 -19 -38 -26 -27 -8 9 15 -24 0 -82 -37 -29 -19 -53 -31
-53 -28 0 3 -17 -4 -37 -15 -21 -11 -41 -20 -46 -20 -10 0 -174 -112 -212
-145 -29 -25 -29 -26 -5 -19 14 4 50 19 80 34 30 15 110 51 178 79 71 30 160
77 211 111 103 70 183 105 276 120 37 6 76 15 86 20 10 6 39 10 66 11 l48 1
-60 14 c-33 7 -62 13 -65 12 -3 0 -16 -3 -30 -5z"/>
<path d="M3453 5773 c9 -2 25 -2 35 0 9 3 1 5 -18 5 -19 0 -27 -2 -17 -5z"/>
<path d="M2553 5750 c-13 -5 -23 -12 -23 -15 0 -11 37 -4 56 10 22 17 4 20
-33 5z"/>
<path d="M2480 5723 c-62 -21 -99 -47 -87 -60 8 -8 126 50 121 59 -6 9 -12 9
-34 1z"/>
<path d="M3346 5712 c-3 -6 18 -13 49 -17 31 -3 53 -10 50 -15 -3 -5 5 -14 17
-21 13 -7 27 -18 31 -26 7 -11 25 -13 85 -9 77 5 77 5 27 -7 -66 -16 -70 -37
-7 -38 l47 -1 -55 -12 c-166 -37 -257 -129 -580 -580 -30 -42 -60 -76 -67 -76
-7 0 -13 -9 -13 -19 0 -10 -7 -21 -15 -25 -18 -6 -19 1 -4 43 18 50 4 47 -30
-8 -17 -28 -35 -51 -41 -51 -5 0 -10 -6 -10 -14 0 -7 -7 -19 -15 -26 -13 -11
-15 -8 -15 17 0 17 8 41 18 54 31 41 84 131 87 151 5 25 -11 23 -18 -2 -3 -11
-10 -20 -16 -20 -13 0 10 79 33 111 9 13 16 27 16 30 0 9 -91 -82 -111 -112
-10 -13 -20 -21 -23 -18 -6 6 70 115 104 149 11 11 31 37 45 60 28 44 40 52
29 18 -9 -30 132 98 149 135 6 15 15 27 19 27 5 0 8 4 8 10 0 5 -7 7 -15 4
-49 -19 49 49 118 82 20 10 36 23 34 28 -2 6 -28 16 -58 23 -30 6 -49 12 -44
12 6 1 3 6 -5 11 -22 15 48 1 85 -17 34 -16 68 -11 142 23 28 13 58 24 65 24
34 1 -38 39 -93 49 -34 6 -67 15 -73 20 -21 17 -100 -14 -144 -56 -7 -7 -19
-13 -27 -13 -32 0 -309 -290 -292 -306 3 -4 25 3 49 14 47 22 88 36 88 29 0
-2 -30 -17 -67 -32 -38 -16 -76 -35 -87 -44 -18 -16 -82 -136 -105 -201 -13
-34 -27 -70 -48 -120 -10 -24 -11 -24 -23 18 -7 23 -18 42 -24 42 -6 0 -20
-19 -30 -41 -19 -39 -20 -40 -29 -17 -5 13 -9 40 -8 61 1 25 -2 36 -9 32 -5
-3 -10 -12 -10 -19 0 -17 -31 -79 -36 -73 -3 2 0 16 5 31 20 50 -6 26 -38 -36
-20 -41 -33 -85 -37 -126 -4 -34 -11 -65 -17 -69 -7 -4 -8 12 -4 46 6 54 -7
63 -18 12 -3 -16 -17 -42 -31 -58 -27 -32 -30 -25 -10 20 24 55 36 99 36 135
0 33 -1 34 -18 19 -41 -38 -36 -4 8 53 34 44 92 158 88 172 -2 5 -27 -16 -56
-48 -66 -74 -72 -82 -72 -90 0 -4 -9 -17 -19 -28 -11 -12 -35 -53 -55 -92 -19
-39 -42 -77 -51 -84 -14 -11 -14 -10 0 16 8 16 15 40 15 52 0 13 8 36 18 50
10 15 26 49 36 75 24 63 119 207 186 280 29 32 51 60 48 62 -5 5 -123 -38
-201 -74 -145 -67 -196 -90 -267 -121 -41 -17 -89 -38 -107 -46 -17 -8 -40
-14 -52 -14 -27 0 -27 -14 2 -41 l22 -21 -25 7 c-14 4 -32 13 -40 20 -20 18
-64 0 -108 -44 -18 -18 -32 -27 -32 -21 0 6 -5 8 -11 4 -8 -4 -7 -9 2 -15 11
-6 8 -14 -11 -34 -15 -16 -27 -22 -33 -16 -5 5 -16 7 -23 4 -18 -7 -18 2 2 33
9 13 14 27 11 30 -11 11 -26 -7 -43 -52 -17 -45 -17 -47 2 -61 18 -13 18 -15
2 -43 l-17 -30 37 -2 c39 -1 58 0 82 7 8 2 18 4 22 4 4 1 16 11 28 23 25 27
27 9 2 -22 -10 -12 -29 -23 -43 -24 -14 -1 -23 -7 -21 -15 2 -9 -4 -12 -20 -8
-13 3 -32 -1 -42 -9 -11 -8 -28 -14 -38 -14 -36 0 -18 -26 18 -27 20 -1 41 -6
47 -12 8 -8 8 -11 0 -11 -7 0 -10 -13 -7 -36 4 -33 3 -35 -18 -29 -18 5 -20 4
-8 -4 12 -8 12 -11 1 -11 -11 0 -11 -3 0 -16 12 -15 11 -16 -11 -9 -14 4 -33
14 -42 23 -17 14 -18 13 -18 -22 0 -24 5 -39 15 -42 11 -4 12 -10 6 -18 -13
-16 2 -83 27 -115 14 -19 27 -25 46 -23 14 2 26 0 26 -5 0 -13 40 -34 51 -27
6 3 -4 15 -23 27 -19 11 -28 22 -20 24 6 3 26 -7 43 -21 17 -14 35 -26 40 -26
5 0 9 -5 9 -10 0 -6 -6 -10 -12 -9 -7 1 -21 -1 -31 -6 -43 -19 -106 15 -160
86 l-18 24 5 -45 c4 -43 7 -60 21 -140 9 -54 37 -120 46 -114 5 3 6 11 3 17
-4 7 -3 9 1 4 5 -4 10 -17 12 -28 2 -12 14 -30 27 -40 13 -10 27 -31 30 -45 4
-15 14 -33 21 -41 8 -8 15 -27 15 -42 0 -42 20 -94 43 -114 21 -18 22 -18 38
2 10 12 29 21 44 21 l27 0 -6 136 c-7 140 1 197 29 208 8 3 35 -2 59 -11 42
-16 49 -16 100 0 52 17 56 17 75 0 15 -12 17 -19 9 -25 -9 -5 -6 -9 7 -14 11
-4 34 -20 52 -37 32 -30 33 -30 122 -25 94 6 104 2 96 -38 -2 -11 -4 -22 -4
-25 -1 -4 -14 -12 -31 -19 -45 -19 -58 -39 -36 -55 16 -12 12 -14 -31 -20 -58
-7 -376 -69 -451 -87 l-53 -12 6 -36 c8 -43 12 -50 31 -50 8 0 23 -9 34 -20
11 -11 28 -20 38 -20 31 0 51 -32 87 -143 47 -147 77 -209 127 -260 60 -63 98
-72 293 -72 181 1 242 13 358 72 l70 35 -6 -32 c-8 -36 -46 -89 -65 -89 -7 -1
-15 -8 -19 -16 -6 -18 -54 -45 -80 -45 -10 0 -29 -9 -43 -20 -14 -11 -33 -20
-42 -20 -10 0 -18 -4 -18 -9 0 -5 -9 -7 -20 -4 -21 6 -29 -20 -10 -32 6 -4 8
-21 4 -42 -5 -29 -3 -39 11 -50 18 -12 18 -13 -2 -13 -12 0 -25 6 -30 13 -5 7
-10 -5 -13 -33 -3 -31 -10 -45 -20 -45 -8 0 -21 -12 -28 -28 -10 -21 -17 -25
-31 -18 -24 13 -86 -16 -71 -34 8 -9 4 -14 -15 -17 -17 -4 -25 -1 -25 9 0 8 5
11 12 7 7 -4 8 -3 4 4 -4 7 -15 12 -26 12 -21 0 -17 -35 6 -44 8 -3 14 -17 14
-31 0 -22 3 -24 19 -15 11 5 28 10 38 10 10 0 26 8 35 18 53 54 83 69 105 51
11 -10 18 -8 32 7 22 25 21 63 -4 76 -15 9 -17 8 -13 -9 3 -12 -1 -26 -11 -35
-17 -14 -51 -13 -51 2 0 5 6 7 14 4 8 -3 18 6 25 23 6 15 22 33 36 39 21 10
26 9 39 -10 l15 -21 7 23 c3 12 13 22 20 22 8 0 14 4 14 8 0 4 14 16 30 25 17
10 30 24 30 32 0 7 15 24 33 36 44 31 57 48 57 81 0 15 13 56 29 90 33 73 91
249 117 358 31 134 109 178 189 108 34 -30 36 -34 30 -77 -3 -25 -1 -68 5 -96
6 -27 12 -63 13 -80 2 -16 10 -41 19 -55 30 -46 43 -81 31 -88 -6 -4 -13 -17
-17 -29 -4 -13 -11 -23 -16 -23 -5 0 -21 -12 -37 -26 -15 -14 -40 -28 -55 -31
-16 -3 -31 -10 -34 -14 -3 -5 -21 -9 -41 -9 -20 0 -46 -9 -60 -20 -14 -11 -40
-20 -57 -20 -73 0 -101 -63 -48 -112 27 -26 97 -48 150 -48 37 0 44 -15 48
-104 5 -91 12 -99 93 -94 42 2 65 -1 68 -9 6 -15 -49 -32 -126 -37 -39 -2 -69
-10 -75 -18 -17 -21 -84 -38 -112 -28 -13 5 -26 6 -28 1 -3 -5 -33 -14 -67
-20 -51 -10 -64 -10 -77 2 -22 19 -78 31 -86 19 -3 -6 -15 -8 -27 -5 -28 8
-89 -57 -89 -95 0 -32 -10 -47 -30 -47 -8 0 -14 -6 -12 -12 1 -7 -3 -13 -8
-13 -6 0 -5 -9 3 -22 9 -15 11 -34 7 -53 -4 -16 -8 -22 -9 -12 0 9 -8 17 -16
17 -20 0 -19 -39 2 -62 15 -17 15 -18 0 -18 -10 0 -17 -4 -17 -10 0 -5 7 -10
15 -10 8 0 15 -4 15 -9 0 -17 41 1 56 24 10 15 21 21 35 18 20 -6 52 14 44 27
-3 4 11 30 30 56 20 27 38 57 42 67 7 21 42 37 83 37 16 0 31 4 34 8 6 10 200
7 259 -4 30 -5 35 -9 26 -20 -6 -8 -15 -12 -19 -9 -5 3 -24 -1 -42 -9 -18 -8
-61 -22 -95 -32 -38 -11 -59 -22 -57 -29 3 -7 -9 -18 -25 -25 -17 -7 -32 -20
-33 -29 0 -9 -2 -21 -2 -28 -1 -6 -5 -15 -9 -19 -12 -12 -8 -24 8 -24 8 0 15
-7 15 -16 0 -14 7 -15 41 -10 60 10 159 -3 159 -21 0 -7 6 -16 14 -19 26 -10
48 -52 37 -73 -7 -12 -6 -22 1 -29 9 -9 7 -16 -6 -31 -13 -14 -14 -20 -4 -23
18 -6 -82 -127 -105 -127 -10 -1 -16 -5 -12 -10 3 -5 -4 -12 -15 -16 -11 -4
-30 -16 -41 -28 -14 -15 -22 -18 -27 -10 -5 8 -14 4 -29 -13 -19 -22 -20 -25
-5 -23 30 3 42 -1 42 -12 0 -6 -7 -8 -16 -5 -14 5 -16 1 -11 -31 4 -21 11 -39
17 -41 5 -2 10 -8 10 -14 0 -6 -8 -7 -17 -3 -10 4 -24 9 -30 12 -8 3 -13 -3
-13 -16 0 -12 -4 -21 -9 -21 -5 0 -6 -12 -2 -28 9 -31 42 -44 39 -15 -3 43 2
53 25 49 12 -3 24 -5 27 -5 3 -1 -2 -5 -10 -11 -12 -7 -12 -13 -1 -33 12 -23
11 -28 -13 -54 -39 -42 -34 -59 17 -54 9 1 17 -2 17 -7 0 -13 -30 -26 -54 -23
-14 2 -17 -2 -13 -13 4 -10 -1 -23 -14 -34 -67 -55 -71 -62 -57 -79 10 -13 10
-17 1 -20 -8 -3 -11 -14 -7 -29 4 -15 2 -24 -5 -24 -16 0 -13 -30 4 -36 17 -7
20 -31 4 -36 -5 -2 -7 -11 -4 -21 4 -9 11 -14 16 -11 5 3 12 -8 15 -25 4 -17
11 -31 15 -31 5 0 7 -14 4 -31 -5 -26 -3 -30 10 -25 13 5 15 1 10 -15 -6 -18
-4 -20 14 -14 12 3 21 2 21 -3 0 -6 -5 -12 -12 -14 -6 -2 -8 -10 -4 -17 6 -9
11 -8 23 6 13 16 13 16 3 -5 -9 -17 -8 -27 0 -37 18 -21 50 -87 50 -102 0 -7
-5 -13 -12 -13 -6 0 -9 -2 -6 -5 3 -3 36 6 74 21 38 14 139 50 224 80 165 58
488 195 531 225 26 19 70 38 79 35 5 -1 64 39 87 59 6 5 25 21 42 35 86 71
208 215 248 294 23 45 25 63 29 210 2 88 3 206 2 261 -3 209 -1 248 21 305 12
30 26 87 31 125 12 82 39 196 50 210 5 6 11 36 15 68 7 54 9 57 35 57 35 0 90
38 165 114 53 54 63 71 89 151 41 128 47 157 33 173 -18 22 -18 199 0 244 12
29 14 56 9 106 -14 137 -45 216 -98 253 -18 13 -37 29 -41 36 -4 7 -13 13 -20
13 -26 0 -33 35 -27 139 6 81 11 106 23 113 10 5 17 19 17 32 0 13 7 40 15 60
10 22 19 99 25 208 6 95 15 200 20 233 5 33 6 88 1 123 -4 34 -4 62 1 62 12 0
-1 46 -28 103 -18 38 -19 47 -8 47 9 0 12 -4 9 -10 -3 -5 -1 -10 4 -10 6 0 11
-11 11 -24 0 -13 6 -29 13 -35 11 -9 12 -1 6 44 -9 65 -14 75 -40 75 -11 0
-36 7 -57 15 -27 12 -33 18 -23 25 8 5 25 4 38 -1 31 -12 35 -11 31 3 -8 23
-139 56 -225 55 -45 0 -87 -3 -93 -7 -6 -4 7 -15 29 -26 35 -17 38 -20 18 -24
-18 -5 -15 -9 23 -28 l45 -22 -50 0 c-58 0 -90 -15 -65 -29 8 -6 24 -17 35
-26 19 -16 19 -16 -11 -11 -17 3 -44 1 -60 -4 -16 -4 -21 -9 -11 -9 27 -1 20
-21 -8 -21 -14 0 -25 -6 -25 -13 0 -22 -66 -37 -103 -25 -43 15 -61 29 -47 38
7 4 -5 17 -30 32 l-42 25 37 17 c33 16 35 19 19 30 -16 12 -16 14 0 23 10 6
17 23 18 46 1 21 5 40 10 43 4 3 0 19 -9 35 -14 24 -15 33 -5 49 7 11 8 21 2
25 -5 3 -6 20 -3 38 6 29 5 31 -10 18 -15 -11 -17 -11 -17 1 0 8 5 19 12 26
16 16 4 25 -34 24 l-33 -1 25 14 c19 11 21 14 8 15 -10 0 -18 7 -18 16 0 31
-33 72 -66 82 -40 12 -42 7 -11 -26 12 -14 18 -23 12 -21 -34 15 -78 35 -132
61 -50 24 -66 28 -77 19 -11 -9 -28 -7 -78 9 -68 24 -251 39 -262 22z m358
-91 c4 -5 -3 -7 -14 -4 -23 6 -26 13 -6 13 8 0 17 -4 20 -9z m-565 -65 c-12
-10 -60 -16 -54 -6 3 5 18 10 32 10 15 0 24 -2 22 -4z m-88 -176 c-13 -11 -31
-20 -40 -20 -10 0 -6 7 14 20 39 26 57 25 26 0z m279 -45 c-13 -14 -26 -22
-29 -19 -3 3 5 14 18 25 33 27 39 24 11 -6z m1250 -155 c0 -5 -4 -10 -10 -10
-5 0 -10 5 -10 10 0 6 5 10 10 10 6 0 10 -4 10 -10z m-2467 -56 c-27 -28 -102
-78 -109 -72 -6 7 83 94 106 105 35 15 36 1 3 -33z m1871 -46 c14 -6 28 -19
31 -29 3 -9 22 -29 41 -44 24 -19 32 -31 26 -37 -7 -7 -24 1 -52 25 -41 35
-93 53 -122 42 -8 -3 -21 1 -28 10 -10 12 -10 15 1 16 20 2 21 2 59 -6 l35 -7
-19 21 c-21 23 -10 27 28 9z m-1999 -48 c-5 -14 -2 -20 9 -20 9 0 16 -5 16
-10 0 -15 -59 -8 -73 9 -10 12 -9 14 6 8 11 -4 21 0 29 13 16 26 21 25 13 0z
m-26 -88 c-4 -2 -17 2 -28 8 -23 12 -28 1 -8 -19 9 -10 7 -10 -11 0 -12 8 -20
20 -17 27 3 7 -3 25 -13 40 -15 24 -11 22 34 -13 28 -22 48 -41 43 -43z m1931
68 c0 -5 -4 -10 -10 -10 -5 0 -10 5 -10 10 0 6 5 10 10 10 6 0 10 -4 10 -10z
m231 -7 c13 -16 12 -17 -3 -4 -10 7 -18 15 -18 17 0 8 8 3 21 -13z m-2041 -7
c0 -11 -19 -15 -25 -6 -3 5 1 10 9 10 9 0 16 -2 16 -4z m1797 -63 c-4 -3 -2
-12 4 -20 13 -15 1 -17 -20 -4 -15 9 -7 31 11 31 6 0 8 -3 5 -7z m-2246 -40
c-8 -15 -10 -15 -11 -2 0 17 10 32 18 25 2 -3 -1 -13 -7 -23z m396 21 c-3 -3
-12 -4 -19 -1 -8 3 -5 6 6 6 11 1 17 -2 13 -5z m553 -29 c0 -8 -2 -15 -4 -15
-2 0 -6 7 -10 15 -3 8 -1 15 4 15 6 0 10 -7 10 -15z m-277 -41 c-9 -15 -19
-21 -21 -15 -4 13 16 41 29 41 5 0 2 -12 -8 -26z m-652 -105 c-16 -6 -28 -6
-35 1 -7 7 1 10 25 9 32 0 33 -1 10 -10z m1844 -120 c-4 -5 1 -17 11 -25 18
-14 18 -15 -6 -13 -14 1 -42 -1 -64 -6 -32 -6 -36 -9 -21 -18 12 -6 20 -6 25
3 5 8 20 10 44 6 20 -3 52 -9 71 -12 27 -5 36 -2 41 10 6 15 8 14 18 -6 9 -18
18 -22 41 -20 24 3 28 1 18 -9 -19 -19 -16 -28 7 -22 15 4 20 0 20 -16 0 -13
4 -19 10 -16 6 4 8 11 5 16 -4 5 -2 9 4 9 6 0 15 -9 21 -20 9 -18 8 -39 -7
-92 -2 -10 -1 -18 4 -18 13 0 31 49 26 70 -4 15 2 22 22 30 15 6 36 8 45 5 10
-3 25 2 34 10 15 15 17 15 32 1 8 -9 26 -16 40 -16 29 0 31 -14 4 -37 -21 -18
-26 -48 -11 -58 13 -8 10 -47 -5 -65 -11 -13 -6 -23 32 -64 25 -27 42 -51 39
-54 -12 -13 -215 7 -265 26 -31 11 -46 14 -87 19 -24 3 -43 9 -43 14 0 5 -8 9
-17 9 -15 0 -16 -2 -3 -10 30 -19 -10 -10 -52 12 -30 16 -38 24 -25 26 9 2 17
7 17 11 0 14 -48 -1 -66 -20 -10 -11 -30 -19 -49 -19 -19 0 -43 -10 -60 -25
-20 -16 -33 -21 -40 -15 -15 12 -25 2 -18 -16 4 -12 0 -14 -21 -8 -16 4 -32 1
-42 -7 -13 -10 -17 -10 -24 1 -7 11 -11 11 -23 1 -10 -8 -17 -9 -22 -1 -10 16
-23 12 -30 -9 -4 -12 -12 -18 -21 -14 -9 3 -14 -2 -14 -16 0 -12 -4 -21 -10
-21 -5 0 -10 9 -10 20 0 11 5 20 11 20 7 0 10 20 7 55 -2 32 1 54 7 52 5 -1 8
-12 7 -24 -4 -26 14 -39 32 -23 14 11 11 45 -6 66 -11 15 27 90 50 99 14 5 14
7 2 15 -11 7 -8 10 12 10 19 0 26 4 22 13 -3 10 4 14 26 14 36 0 50 11 30 23
-16 10 -8 14 23 11 9 -1 24 5 33 13 13 13 13 16 1 16 -8 0 -20 6 -26 13 -8 11
-5 17 14 27 14 7 25 19 25 27 0 9 8 11 25 7 15 -4 25 -2 25 5 0 6 9 11 20 11
22 0 27 16 8 22 -23 8 3 28 28 22 15 -4 24 -2 24 6 0 7 6 6 16 -4 8 -9 12 -21
9 -27z m-1775 1 c11 -7 5 -8 -20 -4 -43 8 -51 14 -19 14 13 0 31 -5 39 -10z
m1657 4 c-3 -3 -12 -4 -19 -1 -8 3 -5 6 6 6 11 1 17 -2 13 -5z m277 -49 c-6
-16 -24 -21 -24 -7 0 11 11 22 21 22 5 0 6 -7 3 -15z m-354 -75 c0 -5 -4 -10
-10 -10 -5 0 -10 5 -10 10 0 6 5 10 10 10 6 0 10 -4 10 -10z m-240 -379 c0
-10 -7 -24 -15 -31 -13 -10 -19 -10 -33 4 -10 9 -22 13 -25 9 -4 -3 -7 -1 -7
6 0 13 34 29 63 30 10 1 17 -6 17 -18z m-635 -191 c-11 -5 -34 -9 -50 -9 -17
-1 -47 -10 -68 -20 -20 -10 -48 -22 -61 -25 -26 -6 -35 -24 -40 -80 -2 -20 -9
-43 -17 -53 -8 -9 -9 -14 -2 -10 17 10 28 -13 12 -24 -12 -8 -12 -11 1 -19 8
-5 23 -10 33 -10 10 0 15 -4 12 -10 -4 -6 2 -7 17 -1 13 4 25 17 27 27 2 11
16 33 32 51 l28 32 -2 -27 c-2 -25 3 -29 78 -55 l80 -27 -67 4 c-84 5 -90 -9
-8 -18 63 -7 77 -25 16 -21 -27 3 -33 0 -29 -11 4 -12 -1 -14 -23 -9 -27 6
-27 5 -9 -7 24 -16 31 -40 10 -32 -22 9 -18 -10 6 -32 14 -13 37 -19 68 -20
26 0 58 -8 70 -16 23 -16 51 -14 51 3 0 5 5 9 11 9 7 0 50 18 96 40 57 27 99
55 133 90 81 83 95 67 61 -70 -28 -116 -72 -195 -129 -231 -75 -48 -133 -61
-291 -66 -165 -6 -230 4 -288 46 -78 57 -131 212 -136 396 -3 137 19 162 169
190 91 16 133 21 189 23 31 0 35 -1 20 -8z m27 -65 c-10 -8 -31 -17 -46 -21
-15 -3 -34 -17 -43 -30 -8 -13 -21 -24 -28 -24 -7 0 -18 -7 -25 -15 -16 -19
-30 -11 -23 14 8 32 48 62 109 81 63 19 88 17 56 -5z m-13 -130 c-12 -11 -52
-9 -57 4 -3 9 1 11 17 6 14 -4 21 -2 21 6 0 10 3 10 12 1 6 -6 9 -14 7 -17z
m1565 -135 c5 -5 7 -13 3 -17 -4 -4 -13 -1 -19 5 -7 7 -18 12 -26 12 -12 0
-12 -3 -2 -15 7 -8 16 -13 20 -10 5 3 11 -1 13 -7 4 -9 8 -9 14 -3 16 19 53
36 53 24 0 -25 -72 -78 -132 -98 -160 -52 -354 -73 -403 -44 -18 11 -17 12 14
13 36 0 35 12 -1 17 -24 4 -61 33 -53 41 3 3 14 -3 25 -13 11 -10 23 -15 28
-11 4 4 -3 16 -16 27 -31 24 -25 55 8 51 81 -10 100 -15 100 -28 0 -8 5 -14
10 -14 6 0 10 5 10 10 0 6 15 8 40 4 29 -5 47 -2 65 10 15 10 61 28 103 40 75
23 127 25 146 6z m-29 -150 c-3 -5 -13 -10 -22 -10 -9 0 -13 -6 -10 -15 4 -10
-4 -17 -29 -24 -20 -5 -41 -8 -49 -5 -7 3 -20 -5 -28 -17 -10 -14 -22 -19 -32
-15 -9 3 -25 1 -35 -4 -13 -7 -21 -7 -25 0 -5 8 -11 7 -20 0 -8 -7 -20 -8 -27
-4 -14 9 -33 13 -101 18 -46 4 -66 11 -56 20 2 2 40 7 84 10 82 6 207 27 260
45 41 13 98 14 90 1z m525 -150 c0 -5 -2 -10 -4 -10 -3 0 -8 5 -11 10 -3 6 -1
10 4 10 6 0 11 -4 11 -10z m-1170 -4 c0 -3 -4 -8 -10 -11 -5 -3 -10 -1 -10 4
0 6 5 11 10 11 6 0 10 -2 10 -4z m35 -26 c3 -5 1 -10 -4 -10 -6 0 -11 5 -11
10 0 6 2 10 4 10 3 0 8 -4 11 -10z m1259 -43 c7 -29 -3 -36 -19 -14 -8 12 -15
14 -20 8 -13 -21 -23 -11 -12 13 13 28 43 24 51 -7z m-1554 -119 c0 -13 -17
-9 -30 7 -6 8 -8 20 -4 26 5 9 11 7 21 -6 7 -11 13 -22 13 -27z m460 -34 c0
-34 -20 -41 -42 -14 -13 16 -15 26 -8 35 17 20 50 6 50 -21z m-597 -1244 c3
-11 1 -20 -4 -20 -5 0 -9 9 -9 20 0 11 2 20 4 20 2 0 6 -9 9 -20z"/>
<path d="M3550 4509 c0 -5 5 -7 10 -4 6 3 10 8 10 11 0 2 -4 4 -10 4 -5 0 -10
-5 -10 -11z"/>
<path d="M3670 4410 c0 -5 7 -10 16 -10 8 0 12 5 9 10 -3 6 -10 10 -16 10 -5
0 -9 -4 -9 -10z"/>
<path d="M3650 4380 c0 -5 5 -10 10 -10 6 0 10 5 10 10 0 6 -4 10 -10 10 -5 0
-10 -4 -10 -10z"/>
<path d="M3870 4346 c0 -18 27 -39 40 -31 7 4 7 12 0 26 -12 22 -40 26 -40 5z"/>
<path d="M3230 4240 c0 -5 5 -10 10 -10 6 0 10 5 10 10 0 6 -4 10 -10 10 -5 0
-10 -4 -10 -10z"/>
<path d="M3635 5700 c3 -5 13 -10 21 -10 8 0 12 5 9 10 -3 6 -13 10 -21 10 -8
0 -12 -4 -9 -10z"/>
<path d="M2597 5689 c8 -8 16 -8 30 0 16 9 14 10 -11 11 -22 0 -27 -3 -19 -11z"/>
<path d="M3171 5684 c-19 -8 -32 -16 -29 -19 6 -7 68 18 68 27 0 10 2 10 -39
-8z"/>
<path d="M2518 5658 c-21 -12 -38 -28 -38 -35 0 -15 16 -17 25 -3 3 5 21 17
40 26 35 16 46 34 23 34 -7 0 -30 -10 -50 -22z"/>
<path d="M2265 5633 c-39 -26 -35 -45 4 -23 17 9 49 50 39 50 -2 0 -21 -12
-43 -27z"/>
<path d="M2309 5628 c-12 -23 -12 -23 10 -4 23 21 26 26 11 26 -5 0 -15 -10
-21 -22z"/>
<path d="M2035 5604 c-25 -15 -33 -24 -22 -24 10 0 15 -4 12 -10 -12 -19 4
-10 41 25 42 40 28 44 -31 9z"/>
<path d="M2440 5600 c20 -13 33 -13 25 0 -3 6 -14 10 -23 10 -15 0 -15 -2 -2
-10z"/>
<path d="M1975 5540 c-16 -11 -25 -20 -20 -20 10 0 64 39 55 40 -3 0 -18 -9
-35 -20z"/>
<path d="M2155 5540 c5 -15 0 -22 -17 -29 -24 -9 -78 -64 -78 -80 0 -6 -10
-17 -22 -25 -17 -12 -19 -16 -6 -16 17 0 73 38 158 108 l52 42 -36 0 c-20 0
-36 5 -36 10 0 6 -5 10 -11 10 -6 0 -8 -9 -4 -20z"/>
<path d="M2353 5540 c1 -11 5 -20 9 -20 4 0 8 9 8 20 0 11 -4 20 -9 20 -6 0
-9 -9 -8 -20z"/>
<path d="M4210 5556 c0 -2 8 -10 18 -17 15 -13 16 -12 3 4 -13 16 -21 21 -21
13z"/>
<path d="M2892 5510 c-18 -29 -15 -38 4 -12 9 13 14 25 12 27 -2 2 -9 -5 -16
-15z"/>
<path d="M1885 5480 c-46 -32 -101 -88 -94 -94 8 -9 99 54 99 68 0 8 12 24 26
35 39 31 15 24 -31 -9z"/>
<path d="M1953 5493 c-18 -9 -34 -22 -37 -30 -4 -10 2 -9 25 4 17 10 35 24 41
31 13 15 11 15 -29 -5z"/>
<path d="M2287 5503 c-4 -3 -7 -15 -7 -26 0 -16 3 -17 15 -7 8 7 15 19 15 26
0 15 -12 19 -23 7z"/>
<path d="M4185 5490 c-3 -6 1 -7 9 -4 18 7 21 14 7 14 -6 0 -13 -4 -16 -10z"/>
<path d="M3219 5470 c-31 -25 -12 -26 21 0 14 11 20 20 14 20 -7 0 -22 -9 -35
-20z"/>
<path d="M4296 5458 c17 -34 81 -98 97 -98 4 0 6 -4 2 -9 -7 -13 32 -34 50
-27 8 3 17 1 20 -5 4 -5 11 -7 16 -3 16 10 -11 34 -37 34 -17 0 -47 23 -95 71
-56 56 -67 64 -53 37z"/>
<path d="M4379 5469 c11 -12 23 -34 26 -49 6 -29 41 -68 51 -57 3 3 -1 16 -10
29 -9 12 -16 30 -16 38 0 19 -40 60 -59 60 -7 0 -4 -9 8 -21z"/>
<path d="M4220 5470 c8 -5 20 -10 25 -10 6 0 3 5 -5 10 -8 5 -19 10 -25 10 -5
0 -3 -5 5 -10z"/>
<path d="M2265 5430 c-3 -5 -1 -10 4 -10 6 0 11 5 11 10 0 6 -2 10 -4 10 -3 0
-8 -4 -11 -10z"/>
<path d="M4480 5385 c13 -14 26 -25 28 -25 3 0 -5 11 -18 25 -13 14 -26 25
-28 25 -3 0 5 -11 18 -25z"/>
<path d="M2808 5383 c-22 -25 -50 -82 -46 -94 2 -5 18 18 36 51 34 61 37 73
10 43z"/>
<path d="M2154 5347 c-27 -19 -64 -42 -82 -51 -18 -9 -50 -33 -70 -52 -20 -19
-38 -30 -40 -25 -3 10 -117 -42 -127 -59 -3 -5 -2 -17 3 -26 8 -15 15 -11 54
25 25 22 49 41 54 41 5 0 -15 -23 -45 -51 -49 -46 -51 -50 -25 -43 30 6 137
58 161 77 8 7 34 32 56 57 23 24 53 54 66 67 13 13 21 23 17 23 -4 0 6 11 21
25 41 36 13 30 -43 -8z"/>
<path d="M4513 5324 c-13 -6 -6 -34 8 -34 4 0 6 7 3 15 -4 8 -3 15 0 15 4 0
11 -12 16 -26 6 -14 14 -22 20 -19 6 4 3 15 -7 30 -19 26 -21 26 -40 19z"/>
<path d="M2535 5287 c-33 -40 -35 -48 -7 -23 18 17 32 31 32 33 0 7 -16 1 -25
-10z"/>
<path d="M1750 5235 c-18 -19 -31 -37 -28 -40 3 -3 20 12 38 35 39 49 35 52
-10 5z"/>
<path d="M2733 5228 c-12 -16 -24 -48 -18 -48 2 0 11 14 20 30 16 31 15 40 -2
18z"/>
<path d="M4190 5232 c0 -11 42 -25 85 -28 l30 -2 -31 14 c-49 20 -84 27 -84
16z"/>
<path d="M1672 5138 c-7 -7 -12 -16 -12 -20 0 -15 15 -8 28 12 13 22 3 27 -16
8z"/>
<path d="M1775 5120 c-18 -19 -17 -20 8 -20 17 0 27 5 27 14 0 24 -16 27 -35
6z"/>
<path d="M2632 5116 c-12 -16 -22 -38 -22 -50 0 -23 26 -66 40 -66 11 0 18 77
10 114 l-6 30 -22 -28z"/>
<path d="M2501 5090 c-12 -22 -18 -40 -12 -40 11 0 46 68 39 75 -2 3 -15 -13
-27 -35z"/>
<path d="M2917 5083 c-4 -3 -7 -11 -7 -17 0 -6 5 -5 12 2 6 6 9 14 7 17 -3 3
-9 2 -12 -2z"/>
<path d="M2955 4950 c-9 -16 -12 -30 -7 -30 4 0 13 14 19 30 6 17 10 30 7 30
-2 0 -10 -13 -19 -30z"/>
<path d="M1595 4700 c-18 -8 -17 -9 8 -9 15 -1 27 4 27 9 0 12 -8 12 -35 0z"/>
<path d="M1560 4646 c0 -2 7 -9 15 -16 12 -10 15 -10 15 4 0 9 -7 16 -15 16
-8 0 -15 -2 -15 -4z"/>
<path d="M1682 3688 c-1 -28 -4 -62 -7 -77 -3 -15 1 -48 9 -72 l13 -44 18 40
c10 22 23 61 30 87 12 43 11 50 -7 73 -11 14 -27 29 -37 34 -15 8 -17 3 -19
-41z"/>
<path d="M1833 3480 c-3 -10 -13 -22 -22 -25 -19 -6 -19 -7 -25 -75 -2 -25 -2
-39 1 -32 3 6 8 10 12 7 14 -8 81 62 81 85 0 48 -37 80 -47 40z"/>
<path d="M2521 3096 c-11 -13 -11 -20 -3 -28 15 -15 24 -5 20 23 -3 21 -4 21
-17 5z"/>
<path d="M2388 2913 c7 -3 16 -2 19 1 4 3 -2 6 -13 5 -11 0 -14 -3 -6 -6z"/>
<path d="M2346 2901 c-4 -5 -2 -12 3 -15 5 -4 12 -2 15 3 4 5 2 12 -3 15 -5 4
-12 2 -15 -3z"/>
<path d="M1925 2829 l40 -40 3 27 c4 32 -19 54 -57 54 -24 0 -24 -1 14 -41z"/>
<path d="M2220 2618 c0 -9 5 -20 10 -23 13 -8 13 5 0 25 -8 13 -10 13 -10 -2z"/>
<path d="M2488 2323 c7 -3 16 -2 19 1 4 3 -2 6 -13 5 -11 0 -14 -3 -6 -6z"/>
<path d="M2577 2017 c-4 -10 2 -13 20 -9 18 3 21 7 11 13 -18 12 -25 11 -31
-4z"/>
<path d="M2830 1890 c0 -5 5 -10 11 -10 5 0 7 5 4 10 -3 6 -8 10 -11 10 -2 0
-4 -4 -4 -10z"/>
<path d="M2667 1870 c3 -11 9 -17 15 -14 5 3 4 12 -3 20 -16 19 -18 18 -12 -6z"/>
<path d="M2758 1803 c6 -2 18 -2 25 0 6 3 1 5 -13 5 -14 0 -19 -2 -12 -5z"/>
<path d="M2825 1669 c-10 -15 3 -25 16 -12 7 7 7 13 1 17 -6 3 -14 1 -17 -5z"/>
<path d="M2292 1571 c-19 -63 -14 -135 14 -206 26 -65 54 -102 40 -54 -3 13
-13 85 -22 159 -9 74 -17 136 -18 138 -2 1 -8 -15 -14 -37z"/>
<path d="M4440 1565 c0 -78 -21 -147 -82 -270 -78 -156 -274 -459 -291 -448
-8 5 -27 -38 -20 -49 2 -5 1 -8 -4 -8 -4 0 -14 -14 -21 -30 -8 -17 -21 -38
-30 -47 -10 -9 -17 -19 -17 -23 0 -3 -20 -45 -44 -93 l-44 -88 -132 -97 c-73
-53 -210 -153 -304 -220 -94 -68 -174 -128 -177 -133 -3 -5 16 -9 41 -9 36 0
56 7 92 33 25 17 82 57 126 87 62 43 86 66 106 105 20 38 45 63 101 102 41 29
78 52 82 53 11 0 0 -26 -52 -120 -52 -95 -125 -258 -119 -264 2 -2 543 -7
1202 -11 l1198 -7 -3 98 -3 98 -35 4 c-19 2 -39 8 -45 14 -7 8 -5 9 8 5 36
-13 15 4 -40 31 -32 16 -66 27 -76 24 -10 -2 -26 3 -35 11 -9 7 -47 29 -84 47
-37 18 -104 63 -149 99 -144 117 -178 142 -273 198 -11 6 -21 19 -22 27 -3 18
-71 105 -99 126 -23 17 -106 56 -187 89 -84 34 -128 77 -175 172 -23 46 -80
134 -127 194 -47 61 -110 147 -141 193 -31 45 -71 98 -90 117 l-35 34 0 -44z"/>
<path d="M2140 1588 c-14 -6 -31 -12 -38 -14 -7 -1 -36 -9 -65 -18 -28 -8 -71
-17 -95 -21 -24 -3 -51 -10 -60 -15 -24 -13 -126 -40 -192 -50 -30 -4 -74 -12
-98 -18 -23 -5 -51 -8 -61 -5 -11 3 -28 -4 -40 -16 -12 -12 -21 -19 -21 -16 0
3 -14 -2 -30 -10 -17 -9 -35 -13 -40 -10 -6 3 -10 -1 -10 -9 0 -9 -4 -16 -10
-16 -18 0 -11 25 11 38 71 45 -103 -4 -226 -63 -51 -25 -117 -51 -146 -58 -29
-8 -55 -19 -57 -26 -7 -22 -22 -11 -18 14 5 29 -13 34 -21 6 -3 -11 -11 -17
-21 -14 -10 2 -39 -7 -65 -21 -56 -30 -61 -31 -53 -11 5 13 2 13 -19 -1 -14
-9 -22 -21 -18 -27 3 -6 1 -7 -6 -3 -6 4 -18 3 -26 -4 -17 -14 -71 -17 -105
-7 -19 6 -21 6 -10 -2 13 -10 13 -12 0 -21 -8 -6 -23 -8 -34 -6 -10 3 -25 -1
-33 -7 -20 -16 -75 -71 -88 -88 -25 -32 -95 -162 -95 -174 0 -8 -5 -17 -11
-20 -6 -4 -8 -13 -5 -20 2 -7 1 -16 -4 -21 -5 -5 -28 -63 -51 -129 -70 -200
-81 -230 -88 -235 -11 -8 -40 -110 -46 -160 -12 -109 -12 -160 1 -186 8 -14
14 -34 14 -43 0 -14 31 -16 318 -17 270 -1 324 -3 361 -17 37 -14 87 -17 325
-17 l282 0 31 43 c17 23 56 75 87 115 31 40 61 83 68 95 14 27 68 98 85 112
18 14 40 73 47 125 10 67 25 89 77 115 25 13 60 36 78 51 31 26 32 28 30 104
-2 43 2 84 8 92 64 82 108 133 114 131 13 -4 39 65 39 105 0 34 28 219 46 305
5 24 -6 16 -78 -55 -46 -46 -82 -86 -80 -90 2 -5 -4 -8 -12 -8 -9 0 -16 -7
-16 -15 0 -8 -6 -15 -13 -15 -15 0 -67 -47 -67 -61 0 -6 -4 -7 -10 -4 -5 3
-10 2 -10 -3 0 -5 -16 -17 -35 -26 -19 -9 -35 -21 -35 -26 0 -6 -13 -10 -29
-10 -29 0 -99 -34 -113 -54 -4 -6 -10 -8 -13 -5 -3 4 -20 -7 -36 -22 -32 -30
-49 -36 -49 -19 0 6 4 10 8 10 4 0 26 18 49 39 23 22 56 48 75 58 48 27 124
83 171 126 22 20 47 37 56 38 10 0 12 2 4 6 -20 8 -15 21 10 25 15 2 21 9 19
21 -2 9 2 17 8 17 5 0 10 7 10 15 0 8 9 15 20 15 11 0 20 6 20 14 0 8 9 18 21
21 11 4 19 9 16 11 -9 9 -106 -39 -100 -50 3 -6 3 -8 -2 -4 -4 4 -17 1 -29 -7
-39 -28 -52 -16 -16 16 32 27 33 30 10 23 -14 -4 -31 -9 -37 -11 -7 -3 -13 -3
-13 0 0 5 29 19 205 102 103 49 115 58 115 88 0 19 -5 20 -40 5z m-300 -208
c-8 -5 -19 -10 -25 -10 -5 0 -3 5 5 10 8 5 20 10 25 10 6 0 3 -5 -5 -10z
m-180 -121 c0 -5 -4 -7 -10 -4 -12 7 -91 -32 -106 -53 -8 -10 -13 -12 -18 -4
-4 7 14 23 46 42 54 31 88 38 88 19z m-757 -16 c-7 -2 -19 -2 -25 0 -7 3 -2 5
12 5 14 0 19 -2 13 -5z m672 -172 c-3 -6 -11 -11 -17 -11 -6 0 -6 6 2 15 14
17 26 13 15 -4z m150 -81 c-27 -12 -43 -12 -25 0 8 5 22 9 30 9 10 0 8 -3 -5
-9z m-145 -280 c0 -5 -8 -10 -17 -10 -15 0 -16 2 -3 10 19 12 20 12 20 0z
m-218 -342 c-6 -6 -15 -8 -19 -4 -4 4 -1 11 7 16 19 12 27 3 12 -12z m-22 -38
c0 -5 -5 -10 -11 -10 -5 0 -7 5 -4 10 3 6 8 10 11 10 2 0 4 -4 4 -10z"/>
<path d="M4078 1456 c-58 -31 -103 -72 -86 -79 7 -3 3 -6 -9 -6 -16 -1 -23 -7
-23 -21 0 -11 -5 -20 -11 -20 -6 0 -9 -6 -6 -14 3 -7 1 -18 -4 -23 -6 -6 -4
-14 6 -23 13 -11 14 -10 9 4 -4 12 -2 15 9 10 20 -7 54 11 62 33 3 10 23 26
46 37 32 14 38 21 28 32 -7 8 -7 14 -1 14 5 0 13 11 16 24 3 14 14 27 24 29
16 4 16 5 -1 6 -10 0 -15 6 -12 11 9 14 3 13 -47 -14z"/>
<path d="M665 1210 c-8 -13 5 -13 25 0 13 8 13 10 -2 10 -9 0 -20 -4 -23 -10z"/>
<path d="M2500 1055 c7 -9 56 -58 108 -110 91 -90 122 -109 138 -83 4 7 3 8
-5 4 -12 -8 -32 8 -50 42 -6 12 -20 22 -31 22 -10 0 -49 31 -87 70 -37 38 -72
70 -77 70 -5 0 -3 -7 4 -15z"/>
<path d="M2565 840 c-11 -4 -40 -13 -63 -20 -24 -6 -42 -14 -39 -17 3 -3 22 0
41 7 22 7 57 9 91 5 55 -7 67 -1 43 23 -14 14 -44 15 -73 2z"/>
<path d="M2400 780 c-19 -11 -32 -19 -29 -20 11 0 79 30 79 35 0 9 -14 5 -50
-15z"/>
<path d="M2208 551 c-6 -22 8 -79 17 -69 3 2 1 24 -3 49 -7 37 -9 40 -14 20z"/>
<path d="M2705 454 c5 -20 2 -21 -47 -20 -35 1 -52 -3 -51 -10 1 -7 -8 -23
-21 -37 -13 -14 -22 -28 -19 -30 2 -3 -5 -8 -16 -12 -12 -3 -21 -11 -21 -16 0
-5 -18 -16 -40 -25 -22 -9 -40 -20 -40 -25 0 -4 -21 -1 -47 7 -80 25 -114 27
-59 5 61 -25 71 -35 61 -58 -5 -10 -9 -21 -9 -25 -1 -3 -4 -9 -8 -13 -4 -4 -3
-18 2 -31 5 -13 6 -24 2 -24 -4 0 -1 -4 7 -9 11 -7 9 -11 -8 -20 -12 -7 -19
-16 -16 -21 3 -4 -8 -19 -25 -33 l-29 -25 124 -1 c138 -2 129 -6 137 69 4 38
20 27 37 -26 l15 -47 124 6 c69 4 127 9 129 11 7 7 -73 201 -132 321 -30 61
-52 100 -50 89z m-215 -324 c-20 -13 -4 -13 20 0 21 11 34 -1 36 -37 0 -13 -6
-23 -18 -26 -10 -3 -18 -1 -18 4 0 4 -6 6 -14 3 -7 -3 -20 1 -27 9 -8 7 -21
12 -29 10 -8 -3 -2 7 13 21 15 14 33 26 40 26 7 0 6 -4 -3 -10z m-69 -20 c-13
-11 -28 -20 -35 -20 -6 0 3 9 19 19 39 25 46 25 16 1z"/>
<path d="M2213 400 c0 -25 2 -35 4 -22 2 12 2 32 0 45 -2 12 -4 2 -4 -23z"/>
<path d="M2246 311 c-3 -4 6 -6 19 -3 14 2 25 6 25 8 0 8 -39 4 -44 -5z"/>
<path d="M2330 69 c-22 -18 -22 -19 -3 -10 12 6 25 16 28 21 9 15 3 12 -25
-11z"/>
</g>
</svg>
